<svg width="22" height="15" viewBox="0 0 22 15" fill="none" xmlns="http://www.w3.org/2000/svg">
  <path
    d="M0 13.75C0 14.4404 0.559644 15 1.25 15H20.75C21.4404 15 22 14.4404 22 13.75C22 13.0596 21.4404 12.5 20.75 12.5H1.25C0.559644 12.5 0 13.0596 0 13.75ZM0 7.5C0 8.19036 0.559644 8.75 1.25 8.75H20.75C21.4404 8.75 22 8.19036 22 7.5C22 6.80964 21.4404 6.25 20.75 6.25H1.25C0.559644 6.25 0 6.80964 0 7.5ZM1.25 0C0.559644 0 0 0.559644 0 1.25C0 1.94036 0.559644 2.5 1.25 2.5H20.75C21.4404 2.5 22 1.94036 22 1.25C22 0.559644 21.4404 0 20.75 0H1.25Z"
    fill="#141718"/>
</svg>
